# xmcd
# 
# Track frame offsets:
#     150
#     14613
#     26711
#     39998
#     58244
#     76026
#     95850
#     110270
#     120955
#     138268
#     153197
#     170754
#     189314
#     209004
#     225870
#     244839
# 
# Disc length: 3542
# 
# Revision: 2
# Processed by: cddbd v1.5.2PL0 Copyright (c) Steve Scherf et al.
# Submitted via: BonkEnc v1.0.8
# 
DISCID=cb0dd410
DTITLE=Various Artist - アニソンヒッツ・歌えるアニメソング集
DYEAR=2005
DGENRE=Anime
TTITLE0=Various Artist - タッチ 『タッチ』 オープニング・テーマ
TTITLE1=Various Artist - ラムのラブソング 『うる星やつら』 オープニング･テーマ
TTITLE2=Various Artist - 愛をとりもどせ！！ 『北斗の拳』 オープニング・テーマ
TTITLE3=Various Artist - 想い出がいっぱい 『みゆき』 エンディング・テーマ
TTITLE4=Various Artist - 悲しみよこんにちは 『めぞん一刻』 オープニング･テーマ
TTITLE5=Various Artist - はじめてのチュウ 『キテレツ大百科』 オープニング･テーマ
TTITLE6=Various Artist - おどるポンポコリン 『ちびまる子ちゃん』 エンディング･テーマ
TTITLE7=Various Artist - クックロビン音頭 『ぼくパタリロ』 エンディング･テーマ
TTITLE8=Various Artist - 摩訶不思議アドベンチャー 『dragon Ball』 オープニング･テーマ
TTITLE9=Various Artist - Cha-la-Head-cha-la 『dragon Ball Z』 オープニング･テーマ
TTITLE10=Various Artist - Blue Velbet 『dragon Ball Gt』 エンディング･テーマ
TTITLE11=Various Artist - ほらね、春が来た 『ついでにとんちんかん』 オープニング・テーマ
TTITLE12=Various Artist - うしろゆびさされ組 『ハイスクール奇面組』 オープニング･テーマ
TTITLE13=Various Artist - 陽あたり良好 『陽あたり良好！』 オープニング･テーマ
TTITLE14=Various Artist - 微笑みの爆弾 『幽☆遊☆白書』 オープニング･テーマ
TTITLE15=Various Artist - 輝きは君の中に 『ninku -忍空-』 オープニング・テーマ
EXTD=
EXTT0=
EXTT1=
EXTT2=
EXTT3=
EXTT4=
EXTT5=
EXTT6=
EXTT7=
EXTT8=
EXTT9=
EXTT10=
EXTT11=
EXTT12=
EXTT13=
EXTT14=
EXTT15=
PLAYORDER=
